<svg width="1920" height="1595" viewBox="0 0 1920 1595" fill="none" xmlns="http://www.w3.org/2000/svg">
<g clip-path="url(#clip0_2198_1878)">
<rect width="1920" height="1595" fill="#F4F5F7"/>
<g opacity="0.4">
<path d="M33.4687 1120.33C-5.13818 1114.56 -36.1882 1131.05 -63.1035 1156.53C-90.0357 1182.02 -112.748 1216.44 -134.699 1246.43C-157.15 1277.11 -184.7 1309.87 -202.321 1344.5C-219.928 1379.11 -227.564 1415.48 -210.264 1453.37C-193.469 1490.14 -159.525 1503.98 -120.721 1513.38C-111.023 1515.73 -101.031 1517.81 -90.9351 1519.89C-80.8417 1521.98 -70.6433 1524.08 -60.5451 1526.48C-40.3497 1531.29 -20.5256 1537.31 -2.67159 1546.9C16.9007 1557.42 34.8755 1572.65 52.0728 1589.29C60.6727 1597.61 69.0843 1606.29 77.4053 1614.91C85.7281 1623.53 93.9599 1632.09 102.21 1640.18C135.245 1672.6 168.391 1697.37 208.337 1688.69C250.973 1679.43 285.268 1647.29 307.934 1605.96C330.598 1564.63 341.596 1514.2 337.678 1468.48C334.299 1429.05 308.417 1400.96 276.438 1374.89C260.44 1361.84 242.984 1349.35 226.055 1336.17C209.146 1323 192.804 1309.17 179.133 1293.53C166.024 1278.53 155.01 1260.88 144.702 1242.68C134.383 1224.47 124.794 1205.75 114.484 1188.52C93.8697 1154.07 70.557 1125.88 33.4687 1120.33Z" stroke="#00F0B5"/>
<path d="M38.3347 1188.49C7.98381 1183.95 -16.4314 1196.91 -37.6101 1216.96C-58.8059 1237.02 -76.6801 1264.11 -93.9677 1287.73C-111.65 1311.89 -133.332 1337.67 -147.2 1364.93C-161.056 1392.16 -167.054 1420.76 -153.451 1450.55C-140.25 1479.46 -113.57 1490.34 -83.024 1497.75C-75.3907 1499.6 -67.5258 1501.23 -59.5763 1502.87C-51.6296 1504.51 -43.5979 1506.16 -35.6452 1508.06C-19.741 1511.84 -4.12202 1516.59 9.94735 1524.15C25.3705 1532.43 39.5316 1544.43 53.0742 1557.54C59.8467 1564.09 66.4698 1570.92 73.0211 1577.71C79.5745 1584.5 86.0554 1591.23 92.5499 1597.61C118.562 1623.13 144.62 1642.59 176.009 1635.77C209.538 1628.49 236.519 1603.21 254.355 1570.69C272.19 1538.17 280.845 1498.47 277.762 1462.5C275.105 1431.5 254.757 1409.41 229.582 1388.88C216.987 1378.61 203.25 1368.78 189.916 1358.4C176.601 1348.03 163.728 1337.14 152.958 1324.82C142.629 1313 133.954 1299.09 125.837 1284.77C117.708 1270.42 110.163 1255.69 102.046 1242.13C85.8168 1215 67.4834 1192.85 38.3347 1188.49Z" stroke="#00F0B5"/>
<path d="M41.8498 1237.73C17.4637 1234.08 -2.1579 1244.49 -19.192 1260.62C-36.243 1276.76 -50.6214 1298.55 -64.5396 1317.56C-78.7772 1337.02 -96.2185 1357.75 -107.376 1379.68C-118.52 1401.59 -123.337 1424.58 -112.405 1448.51C-101.8 1471.74 -80.3682 1480.48 -55.7879 1486.44C-49.6463 1487.93 -43.3182 1489.25 -36.92 1490.57C-30.5244 1491.89 -24.0587 1493.22 -17.6563 1494.74C-4.85257 1497.79 7.72825 1501.61 19.0632 1507.7C31.4885 1514.38 42.8936 1524.04 53.7956 1534.59C59.2477 1539.87 64.5799 1545.37 69.8526 1550.83C75.1274 1556.29 80.3419 1561.72 85.5678 1566.84C106.506 1587.39 127.443 1603.01 152.649 1597.54C179.598 1591.68 201.294 1571.36 215.641 1545.2C229.986 1519.04 236.948 1487.11 234.469 1458.18C232.334 1433.27 215.985 1415.52 195.727 1399C185.59 1390.73 174.541 1382.82 163.803 1374.46C153.085 1366.12 142.718 1357.35 134.043 1347.42C125.724 1337.9 118.738 1326.7 112.204 1315.17C105.658 1303.61 99.5898 1291.77 93.0566 1280.85C79.9964 1259.02 65.2619 1241.23 41.8498 1237.73Z" stroke="#00F0B5"/>
</g>
</g>
<defs>
<clipPath id="clip0_2198_1878">
<rect width="1920" height="1595" fill="white"/>
</clipPath>
</defs>
</svg>
